<svg width="1471" height="1470" viewBox="0 0 1471 1470" fill="none" xmlns="http://www.w3.org/2000/svg">
<path fill-rule="evenodd" clip-rule="evenodd" d="M686.07 0.668536C553.927 10.5915 433.35 51.7825 326.57 123.481C148.316 243.17 31.086 433.368 5.04598 645.133C0.577979 681.467 -1.31805 744.076 0.981953 779.34C5.40995 847.244 17.824 910.006 39.114 972.133C109.049 1176.21 266.202 1340.49 466.903 1419.3C538.72 1447.5 611.983 1463.66 690.934 1468.71C714.105 1470.19 778.578 1469.35 800.07 1467.29C896.022 1458.07 981.513 1433.65 1065.07 1391.58C1279.59 1283.57 1429.34 1075.85 1462.98 839.633C1471.62 778.952 1472.56 709.649 1465.54 649.356C1437.05 404.348 1285.07 187.664 1064.27 77.2415C980.386 35.2915 898.313 11.8535 800.751 1.98754C783.023 0.194536 704.421 -0.708464 686.07 0.668536ZM763.07 121.647C798.527 123.457 830.176 127.487 862.07 134.253C1085.58 181.67 1265.08 350.365 1326.42 570.633C1341.46 624.645 1348.41 676.472 1348.41 734.633C1348.41 792.794 1341.46 844.621 1326.42 898.633C1265.54 1117.27 1088.02 1285.35 866.57 1334.03C821.943 1343.84 782.863 1347.99 735.07 1347.99C679.106 1348 633.983 1342.25 579.57 1328.18C419.903 1286.9 280.944 1179.22 199.256 1033.46C160.693 964.657 136.162 889.875 126.16 810.633C122.821 784.18 121.712 765.232 121.712 734.633C121.712 686.853 125.861 647.769 135.673 603.133C182.275 391.133 338.755 218.399 545.113 151.166C615.411 128.262 691.296 117.985 763.07 121.647ZM483.837 445.369L233.185 685.133L300.627 685.39L368.07 685.646V695.823C368.07 707.665 369.863 712.662 375.91 717.663C382.849 723.403 385.059 723.633 433.252 723.633H477.07V736.779V749.926L472.5 754.81C469.987 757.497 466.724 762.269 465.25 765.414C462.92 770.385 462.575 772.374 462.606 780.633C462.637 788.92 462.994 790.86 465.401 795.825C466.919 798.956 470.165 803.746 472.615 806.471L477.07 811.426V826.293V841.159L468.48 844.076C438.412 854.285 414.163 880.463 405.901 911.633C402.65 923.902 402.65 947.364 405.901 959.633C414.26 991.169 439.258 1017.84 469.57 1027.57C505.437 1039.08 542.877 1029.99 568.997 1003.42C596.709 975.243 604.467 934.272 589.087 897.327C578.935 872.941 554.861 851.27 528.82 843.076L523.07 841.268V825.886V810.503L525.967 808.065C527.561 806.724 530.224 803.491 531.886 800.879C541.271 786.132 539.559 767.553 527.64 754.81L523.07 749.926V736.779V723.633H623.57H724.07V736.736V749.839L719.694 754.706C705.889 770.061 705.997 792.09 719.948 806.344L724.07 810.555V861.435V912.315L719.82 913.574C704.112 918.224 689.061 927.658 676.965 940.435C664.482 953.621 656.463 968.563 652.44 986.133C650.253 995.685 650.018 1015.99 651.989 1025.13C661.484 1069.19 697.67 1100.62 742.002 1103.32C786.718 1106.05 827.214 1077.17 840.743 1032.92C843.216 1024.83 843.432 1022.74 843.455 1006.63C843.478 990.326 843.292 988.523 840.725 980.196C830.957 948.506 809.053 925.594 778.07 914.659L770.57 912.012L770.311 861.685L770.051 811.36L774.631 806.465C777.149 803.772 780.416 798.996 781.89 795.851C784.24 790.837 784.569 788.902 784.56 780.133C784.551 771.282 784.236 769.493 781.82 764.558C780.319 761.492 777.061 756.925 774.58 754.408L770.07 749.833V736.732V723.633H870.57H971.07V736.969V750.307L967.179 754.398C965.039 756.647 962.001 761.107 960.429 764.31C957.83 769.603 957.572 771.086 957.588 780.633C957.608 792.809 959.236 797.264 966.694 805.56L971.07 810.426V825.947V841.47L964.32 843.69C938.43 852.211 915.999 872.744 905.593 897.447C899.636 911.587 898.57 917.386 898.57 935.633C898.57 953.88 899.636 959.678 905.593 973.818C916.892 1000.64 941.932 1022.05 971.07 1029.79C982.141 1032.73 1005.7 1033.01 1016.42 1030.33C1053.72 1021 1081.28 992.731 1089.74 955.133C1091.68 946.532 1091.93 926.406 1090.2 918.133C1084.73 892.004 1069.63 869.099 1048.76 855.29C1041.9 850.749 1028.31 844.273 1022.32 842.683L1018.07 841.555V825.985V810.413L1023 805.019C1029.61 797.786 1032.34 790.56 1032.41 780.108C1032.46 773.15 1032.06 771.201 1029.35 765.429C1027.64 761.769 1024.4 756.778 1022.15 754.341L1018.07 749.909V736.818V723.727L1063.82 723.43C1108.43 723.14 1109.67 723.079 1113.58 720.984C1115.79 719.801 1118.87 717.56 1120.43 716.003C1125.44 710.988 1126.45 707.933 1126.88 696.391L1127.29 685.65L1182.13 685.391L1236.98 685.133L986.649 445.674C848.967 313.972 735.907 206.079 735.404 205.911C734.9 205.743 621.695 313.499 483.837 445.369ZM517.037 888.084C547.715 899.163 559.967 935.82 542.186 963.331C531.754 979.471 512.147 988.319 492.82 985.608C465.7 981.802 445.833 955.399 449.951 928.633C452.853 909.77 465.9 894.033 483.547 888.112C491.179 885.551 509.979 885.536 517.037 888.084ZM1012.91 888.576C1030.79 895.277 1043.68 912.891 1044.82 932.173C1045.42 942.277 1043.9 949.711 1039.38 958.741C1028.57 980.343 1002.98 991.082 979.57 983.842C971.42 981.321 965.601 977.669 958.416 970.565C943.22 955.54 939.812 931.03 950.207 911.527C955.915 900.817 969.286 890.2 980.808 887.227C988.068 885.353 1006.36 886.122 1012.91 888.576ZM763.118 958.577C784.555 965.238 799.623 987.685 797.727 1010.13C796.163 1028.66 785.412 1044.29 768.825 1052.17C744.081 1063.92 714.194 1053.6 702.146 1029.13C698.297 1021.32 697.124 1015.94 697.094 1005.99C697.064 995.76 699.663 986.968 705.142 978.763C717.983 959.534 740.719 951.617 763.118 958.577Z" fill="black"/>
</svg>
